<svg width="140" height="26" viewBox="0 0 140 26" fill="none" xmlns="http://www.w3.org/2000/svg">
<path d="M93.4639 20.1992V6.05469H99.4961L103.496 14.8007L107.515 6.05469H113.328V20.1992H109.137V10.4967L104.48 20.1992H102.202L97.5461 10.4967V20.1992H93.4639Z" fill="#FFFCF5"/>
<path d="M120.341 6.05469V20.1992H116.095V6.05469H120.341Z" fill="#FFFCF5"/>
<path d="M122.413 6.05469H127.151L135.808 14.8927V6.05469H139.999V20.1992H135.808L126.604 10.9013V20.1992H122.413V6.05469Z" fill="#FFFCF5"/>
<path d="M33.3242 20.1992V6.05469H37.5705V11.2692H46.6826V6.05469H50.9289V20.1992H46.6826V14.58H37.5705V20.1992H33.3242Z" fill="#FFFCF5"/>
<path d="M71.6901 5.60571H73.1279C88.7774 5.60571 90.6166 10.1861 90.6166 12.6484V13.2037C90.6166 15.6289 88.8109 20.3204 73.1279 20.3204H71.6901C55.9402 20.3204 54.168 15.6289 54.168 13.2037V12.6484C54.168 10.1861 55.9402 5.60571 71.6901 5.60571ZM86.1023 14.4166V11.3984C86.1023 9.82485 80.8189 8.93802 72.3923 8.93802C63.8319 8.93802 58.6822 10.0548 58.6822 11.6284V14.1497C58.6822 15.7233 63.9656 16.9696 72.3923 16.9696C80.752 16.9696 86.1023 16.0087 86.1023 14.4166Z" fill="#FFFCF5"/>
<path d="M0.469917 0.0489682C0.0252023 0.279609 0.78757 1.20219 0.78757 1.46576C0.78757 1.72934 0.215794 1.56462 0.0252023 1.92705C-0.16539 2.28947 0.78757 4.20051 0.78757 4.20051C0.78757 4.20051 1.39111 6.53987 1.39111 7.52833C1.39111 8.5168 1.74054 9.43936 1.39111 10.6585C1.04168 11.8776 0.78757 15.3701 0.78757 16.5233C0.78757 17.6765 0.819349 19.0275 1.39111 19.95C1.96287 20.8726 3.58289 22.2564 3.99586 23.1131C4.40882 23.9698 4.52515 24.882 5.35104 25.3433C6.17692 25.8046 7.26518 25.9259 9.01227 25.9259H14.9266C16.898 25.9259 17.8181 24.7647 18.3062 24.4694C18.7943 24.1741 26.6446 8.5168 26.6446 8.5168L26.8352 7.85782L27.3116 7.52833C27.3116 7.52833 29.8846 4.46409 29.8529 3.93692C29.8211 3.40975 27.534 1.20219 26.8352 1.23512C26.1363 1.26806 23.8175 4.26642 23.8174 4.76064C23.8174 5.25486 24.6116 5.74911 24.5798 6.21038C24.548 6.67165 23.0551 6.96821 22.1021 7.85782C21.1491 8.74744 19.2432 12.6683 18.5126 13.2285C17.782 13.7886 17.3055 14.9418 16.0349 14.9418C14.7643 14.9418 12.7366 12.5036 12.0325 11.8776C11.3284 11.2516 10.6348 9.99948 10.1266 8.74744C9.61835 7.4954 9.61832 4.16755 9.5548 3.245C9.49129 2.32244 8.47478 1.07038 6.95005 0.477302C5.42531 -0.115776 3.58292 0.477302 3.20174 0.477302C2.82055 0.477302 0.914632 -0.181673 0.469917 0.0489682Z" fill="#FFFCF5"/>
</svg>
